<svg xmlns="http://www.w3.org/2000/svg" width="233.043" height="38.7" viewBox="0 0 233.043 38.7">
  <g id="Grupo_6244" data-name="Grupo 6244" transform="translate(0 0)">
    <path id="Trazado_3757" data-name="Trazado 3757" d="M403.478,395.248c0,2.622.138,3.173.345,3.38.243.241.69.311,1.761.311h1.139c1.311,0,1.622-.035,1.828-.311a4.423,4.423,0,0,0,.206-1.862h6.077c0,2.794-.347,4.623-1.277,5.555-.588.587-1.347,1.275-3.729,1.275h-7.213c-2.036,0-2.967-.311-3.864-1.24-1.277-1.311-1.864-2.829-1.864-8.423s.587-7.108,1.864-8.419c.862-.931,1.828-1.242,3.864-1.242h6.868c2.038,0,2.969.311,3.865,1.242,1.279,1.311,1.487,2.932,1.487,8.387v.24c0,.828-.175,1.107-1.106,1.107Zm0-2.969h4.969c0-2-.136-2.829-.312-3.038-.2-.242-.481-.311-1.551-.311h-1c-1.071,0-1.517.069-1.761.311s-.345.76-.345,3.038" transform="translate(-396.887 -376.679)" fill="#fff"/>
    <path id="Trazado_3758" data-name="Trazado 3758" d="M444.713,403.6H435.05v-5.14h1.69l3.831-4.626-3.692-4.416h-1.69v-5.142h9.939v4.935H443.4l2.208,2.658h.172l2.315-2.658h-1.726v-4.935h9.56v5.142h-1.692l-3.727,4.315,3.866,4.728h1.691v5.14H446.024v-4.932h1.829l-2.378-2.83H445.3l-2.416,2.83h1.831Z" transform="translate(-414.455 -376.679)" fill="#fff"/>
    <path id="Trazado_3759" data-name="Trazado 3759" d="M497.936,402.017a5.115,5.115,0,0,1-3.9,1.241h-1.276c-1.658,0-2.658-.309-4.557-2.068v3.174h2.384v5.074H479.159v-5.142h2.211V389.386h-2.211v-5.142H488.2v2.726c2.384-2.278,3.211-2.759,4.868-2.759h1.1c2.036,0,3.141.308,4.039,1.207,1.241,1.243,1.655,3.174,1.655,8.317s-.621,6.972-1.931,8.283M488.2,389.833V397.7a5.907,5.907,0,0,0,2.037.416h.794a2.04,2.04,0,0,0,1.553-.416c.414-.413.553-1.1.553-3.968s-.139-3.554-.553-3.969a2.053,2.053,0,0,0-1.553-.412h-.621a6.289,6.289,0,0,0-2.21.48" transform="translate(-434.761 -376.65)" fill="#fff"/>
    <path id="Trazado_3760" data-name="Trazado 3760" d="M522.7,397.857v-5.14h2.313V376.944H522.7V371.8h9.147v20.983h2.312v5.072Z" transform="translate(-454.803 -370.939)" fill="#fff"/>
    <path id="Trazado_3761" data-name="Trazado 3761" d="M550.959,402.357c-1.277-1.311-1.865-3.28-1.865-8.423s.588-7.108,1.865-8.419c.861-.931,1.828-1.242,3.864-1.242h7.04c2.037,0,2.97.311,3.867,1.242,1.275,1.311,1.862,3.28,1.862,8.419,0,5.179-.588,7.112-1.862,8.423-.9.929-1.831,1.24-3.867,1.24h-7.04c-2.036,0-2.969-.311-3.864-1.24m5.21-4.107c.208.276.483.309,1.208.309h1.932c.726,0,1-.068,1.209-.309s.344-.931.344-4.316-.137-4.071-.344-4.311-.483-.311-1.209-.311h-1.932c-.725,0-1,.034-1.208.311-.207.24-.346.931-.346,4.311s.139,4.075.346,4.316" transform="translate(-466.955 -376.679)" fill="#fff"/>
    <path id="Trazado_3762" data-name="Trazado 3762" d="M599.806,398.457v5.14H588.521v-5.14h2.208v-9.043h-2.208v-5.142h9.041v3.141c2.069-2.209,3.072-3.141,4.658-3.141h1.52v6.592h-1.933a9.583,9.583,0,0,0-4.245.827v6.765Z" transform="translate(-485.105 -376.679)" fill="#fff"/>
    <path id="Trazado_3763" data-name="Trazado 3763" d="M632.859,389.382a1.558,1.558,0,0,0-1.137-.278h-1.311a1.568,1.568,0,0,0-1.14.278c-.242.241-.276.516-.31,1.379h-6.282c.034-3.417.344-4.555,1.174-5.386.794-.791,1.794-1.1,3.658-1.1h7.764a4.866,4.866,0,0,1,3.59,1.07c.827.827,1.1,1.933,1.1,4.9v8.215h2.106v5.14h-8.9v-2c-2.175,1.794-3,2.04-4.694,2.04h-2.14c-1.691,0-2.589-.207-3.348-.968-.657-.657-1.106-1.8-1.106-4.418,0-2.486.309-3.969,1.208-4.868.932-.93,2.313-1.206,4.593-1.206a28.307,28.307,0,0,1,5.487.586v-1.313c0-1.519-.071-1.827-.313-2.068m.313,8.972v-2.589h-1.795c-1.691,0-2.21.1-2.556.451a1.829,1.829,0,0,0-.379,1.379,1.759,1.759,0,0,0,.346,1.311,1.673,1.673,0,0,0,1.241.346,6.485,6.485,0,0,0,3.143-.9" transform="translate(-500.464 -376.679)" fill="#fff"/>
    <path id="Trazado_3764" data-name="Trazado 3764" d="M678.268,397.1l-1.657.379a22,22,0,0,1-4.865.517c-2.314,0-3.279-.553-3.935-1.207-.623-.623-.965-1.519-.965-3.935v-9.18h-2.382v-5.143h2.382V371.8h6.835v6.73H678.3v5.143H673.68v7.489c0,.759.066,1.105.275,1.31.17.173.518.243,1.378.243h2.936Z" transform="translate(-520.065 -370.938)" fill="#fff"/>
    <path id="Trazado_3765" data-name="Trazado 3765" d="M697.137,402.357c-1.278-1.311-1.866-3.28-1.866-8.423s.587-7.108,1.866-8.419c.862-.931,1.828-1.242,3.865-1.242h7.04c2.037,0,2.968.311,3.865,1.242,1.277,1.311,1.865,3.28,1.865,8.419,0,5.179-.588,7.112-1.865,8.423-.9.929-1.828,1.24-3.865,1.24H701c-2.037,0-2.966-.311-3.865-1.24m5.208-4.107c.209.276.484.309,1.21.309h1.933c.725,0,1-.068,1.205-.309s.348-.931.348-4.316-.138-4.071-.348-4.311-.481-.311-1.205-.311h-1.933c-.726,0-1,.034-1.21.311-.205.24-.343.931-.343,4.311s.138,4.075.343,4.316" transform="translate(-534.247 -376.679)" fill="#fff"/>
    <path id="Trazado_3766" data-name="Trazado 3766" d="M745.968,398.457v5.14H734.684v-5.14h2.209v-9.043h-2.209v-5.142h9.042v3.141c2.07-2.209,3.072-3.141,4.658-3.141H749.9v6.592h-1.932a9.588,9.588,0,0,0-4.246.827v6.765Z" transform="translate(-552.391 -376.679)" fill="#fff"/>
    <path id="Trazado_3767" data-name="Trazado 3767" d="M768.051,397.12v-5.14h2.311v-9.043h-2.311v-5.142H777.2v14.253h2.312v5.072Zm1.968-26.919h6.868v5.247h-6.868Z" transform="translate(-567.751 -370.201)" fill="#fff"/>
    <path id="Trazado_3768" data-name="Trazado 3768" d="M796.313,402.357c-1.277-1.311-1.865-3.28-1.865-8.423s.587-7.108,1.865-8.419c.862-.931,1.827-1.242,3.864-1.242h7.042c2.036,0,2.967.311,3.866,1.242,1.275,1.311,1.861,3.28,1.861,8.419,0,5.179-.587,7.112-1.861,8.423-.9.929-1.83,1.24-3.866,1.24h-7.042c-2.037,0-2.966-.311-3.864-1.24m5.211-4.107c.207.276.483.309,1.208.309h1.933c.723,0,1-.068,1.207-.309s.344-.931.344-4.316-.138-4.071-.344-4.311-.484-.311-1.207-.311h-1.933c-.725,0-1,.034-1.208.311-.208.24-.346.931-.346,4.311s.138,4.075.346,4.316" transform="translate(-579.903 -376.679)" fill="#fff"/>
    <path id="Trazado_3769" data-name="Trazado 3769" d="M525.461,432.543v4.712h-.874v-4.712h-1.716v-.748h4.307v.748Z" transform="translate(-454.883 -398.556)" fill="#fff"/>
    <path id="Trazado_3770" data-name="Trazado 3770" d="M535.042,435.7h-2.083l-.477,1.536h-.866l1.732-5.273c.055-.179.1-.21.311-.21h.759c.194,0,.248.031.31.21l1.732,5.273h-.942Zm-1.859-.732h1.623l-.747-2.45h-.116Z" transform="translate(-458.909 -398.536)" fill="#fff"/>
    <path id="Trazado_3771" data-name="Trazado 3771" d="M543.779,436.507h2.645v.748h-3.519V431.8h.874Z" transform="translate(-464.106 -398.557)" fill="#fff"/>
    <path id="Trazado_3772" data-name="Trazado 3772" d="M552.769,436.507h2.645v.748h-3.52V431.8h.874Z" transform="translate(-468.244 -398.557)" fill="#fff"/>
    <path id="Trazado_3773" data-name="Trazado 3773" d="M564.618,437.256h-3.728V431.8h3.728v.747h-2.855v1.507h2.364v.747h-2.364v1.71h2.855Z" transform="translate(-472.386 -398.557)" fill="#fff"/>
    <path id="Trazado_3774" data-name="Trazado 3774" d="M573.514,435.109c-.1-.086-.258-.109-.569-.109h-1.512v2.255h-.875v-5.46h2.94a1.069,1.069,0,0,1,.781.225c.21.211.351.509.351,1.324,0,.963-.266,1.234-.89,1.321v.014c.577.111.8.253.834,1.046.032.764.056,1.234.087,1.529h-.873a12.727,12.727,0,0,1-.1-1.5c-.008-.439-.06-.548-.171-.641m-.274-.827c.228,0,.3-.039.336-.077.071-.071.173-.242.173-.8s-.094-.724-.165-.8c-.04-.037-.116-.062-.344-.062h-1.808v1.739Z" transform="translate(-476.835 -398.556)" fill="#fff"/>
    <path id="Trazado_3775" data-name="Trazado 3775" d="M588.838,435.042a1.229,1.229,0,0,1-.841.2h-1.849v2.012h-.874V431.8H588a1.229,1.229,0,0,1,.841.2c.234.212.446.563.446,1.547,0,.936-.22,1.285-.446,1.5m-1.06-.547c.273,0,.367-.021.42-.072.087-.067.2-.247.2-.9s-.109-.832-.2-.9c-.053-.047-.147-.071-.42-.071h-1.629v1.951Z" transform="translate(-483.611 -398.557)" fill="#fff"/>
    <path id="Trazado_3776" data-name="Trazado 3776" d="M599.5,433.855c0,1.372-.116,1.653-.4,1.94-.25.251-.625.329-1.343.329h-.795c-.71,0-1.076-.086-1.311-.318-.289-.291-.4-.564-.4-1.95v-3.191h.873v3.377c0,.991.077,1.078.187,1.186.085.084.234.125.833.125h.493c.586,0,.727-.031.819-.125.117-.118.171-.18.171-1.186v-3.377h.874Zm-2.613-3.684.664-.834h1.3v.039l-1.171.835h-.789Z" transform="translate(-488.202 -397.424)" fill="#fff"/>
    <path id="Trazado_3777" data-name="Trazado 3777" d="M606.362,431.8h2.847a1.253,1.253,0,0,1,.86.224c.233.212.334.482.334,1.28,0,.757-.273.982-.8,1.115v.017c.624.1.859.389.859,1.223,0,.9-.134,1.146-.36,1.358a1.3,1.3,0,0,1-.875.241h-2.862Zm2.667,2.261c.244,0,.319-.015.376-.061.077-.071.125-.2.125-.7s-.039-.615-.117-.689c-.048-.045-.133-.062-.384-.062h-1.793v1.514Zm.416.794c-.047-.046-.112-.06-.369-.06h-1.84v1.716h1.84c.244,0,.329-.009.384-.063s.125-.187.125-.779c0-.617-.071-.742-.14-.814" transform="translate(-493.318 -398.557)" fill="#fff"/>
    <path id="Trazado_3778" data-name="Trazado 3778" d="M617.716,436.507h2.644v.748h-3.518V431.8h.874Z" transform="translate(-498.143 -398.557)" fill="#fff"/>
    <rect id="Rectángulo_924" data-name="Rectángulo 924" width="0.874" height="5.46" transform="translate(123.598 33.239)" fill="#fff"/>
    <path id="Trazado_3779" data-name="Trazado 3779" d="M634.43,437.038c-.18.163-.376.217-.89.217h-1.514c-.514,0-.708-.054-.888-.217-.305-.273-.493-.671-.493-2.513s.187-2.238.493-2.512c.18-.163.373-.216.888-.216h1.514c.514,0,.71.052.89.216.3.274.444.633.459,1.576h-.873c-.024-.685-.1-.88-.179-.96-.064-.053-.126-.085-.393-.085H632.12c-.266,0-.328.031-.39.085-.085.08-.2.322-.2,1.9s.112,1.818.2,1.9c.062.052.124.084.39.084h1.324c.267.007.329-.033.393-.084.084-.08.155-.235.179-1.047h.881c-.04,1.086-.164,1.39-.468,1.663" transform="translate(-504.497 -398.557)" fill="#fff"/>
    <path id="Trazado_3780" data-name="Trazado 3780" d="M644.052,431.795c.514,0,.71.053.889.217.3.274.49.673.49,2.512s-.187,2.24-.49,2.513c-.179.164-.375.218-.889.218h-1.561c-.515,0-.71-.054-.89-.218-.3-.273-.491-.671-.491-2.513s.188-2.238.491-2.512c.181-.164.375-.217.89-.217Zm-1.858,4.627c.065.052.127.084.391.084h1.373c.264.007.328-.032.389-.084.086-.08.2-.321.2-1.9s-.11-1.816-.2-1.9c-.062-.053-.126-.085-.389-.085h-1.373c-.264,0-.326.031-.391.085-.085.08-.2.322-.2,1.9s.111,1.818.2,1.9" transform="translate(-509.314 -398.556)" fill="#fff"/>
    <path id="Trazado_3781" data-name="Trazado 3781" d="M658.629,431.795a1.789,1.789,0,0,1,1.325.38c.36.327.534,1.007.534,2.349s-.174,2.024-.534,2.349a1.784,1.784,0,0,1-1.325.382h-2.372v-5.46Zm.664.921c-.171-.156-.329-.173-.664-.173h-1.5v3.963h1.5c.335,0,.508-.023.664-.172.21-.2.3-.571.3-1.8,0-1.257-.094-1.625-.3-1.818" transform="translate(-516.287 -398.556)" fill="#fff"/>
    <path id="Trazado_3782" data-name="Trazado 3782" d="M670.712,437.256h-3.729V431.8h3.729v.747h-2.855v1.507h2.364v.747h-2.364v1.71h2.855Z" transform="translate(-521.225 -398.557)" fill="#fff"/>
    <path id="Trazado_3783" data-name="Trazado 3783" d="M684.5,437.256h-3.727V431.8H684.5v.747h-2.856v1.507h2.365v.747h-2.365v1.71H684.5Z" transform="translate(-527.575 -398.557)" fill="#fff"/>
    <path id="Trazado_3784" data-name="Trazado 3784" d="M691.9,435.187h-.069l-1.4,2.069H689.5l1.881-2.793-1.819-2.666h1.014l1.311,1.957h.07l1.3-1.957h.968l-1.818,2.684,1.879,2.775h-.974Z" transform="translate(-531.592 -398.557)" fill="#fff"/>
    <path id="Trazado_3785" data-name="Trazado 3785" d="M704.173,435.042a1.24,1.24,0,0,1-.843.2h-1.851v2.012h-.872V431.8h2.723a1.24,1.24,0,0,1,.843.2c.234.212.443.563.443,1.547,0,.936-.218,1.285-.443,1.5m-1.063-.547c.273,0,.367-.021.422-.072.085-.067.2-.247.2-.9s-.11-.832-.2-.9c-.055-.047-.149-.071-.422-.071h-1.631v1.951Z" transform="translate(-536.704 -398.557)" fill="#fff"/>
    <path id="Trazado_3786" data-name="Trazado 3786" d="M714.31,437.256h-3.727V431.8h3.727v.747h-2.855v1.507h2.363v.747h-2.363v1.71h2.855Z" transform="translate(-541.296 -398.557)" fill="#fff"/>
    <path id="Trazado_3787" data-name="Trazado 3787" d="M723.208,435.109c-.1-.086-.257-.109-.571-.109h-1.513v2.255h-.873v-5.46h2.939a1.069,1.069,0,0,1,.781.225c.21.211.35.509.35,1.324,0,.963-.265,1.234-.89,1.321v.014c.58.111.807.253.835,1.046.033.764.055,1.234.086,1.529h-.873a13.465,13.465,0,0,1-.1-1.5c-.01-.439-.063-.548-.172-.641m-.273-.827c.226,0,.3-.039.335-.077.071-.071.171-.242.171-.8s-.092-.724-.162-.8c-.039-.037-.118-.062-.343-.062h-1.81v1.739Z" transform="translate(-545.747 -398.556)" fill="#fff"/>
    <rect id="Rectángulo_925" data-name="Rectángulo 925" width="0.874" height="5.46" transform="translate(180.268 33.239)" fill="#fff"/>
    <path id="Trazado_3788" data-name="Trazado 3788" d="M741.561,437.256h-.888v-4.641h-.118l-1.272,4.4c-.062.2-.095.241-.3.241h-.561c-.211,0-.249-.038-.3-.241l-1.271-4.477h-.119v4.718h-.849V431.8h1.359c.218,0,.287.068.342.27l1.108,4.051h.118l1.1-4.051c.056-.2.118-.27.335-.27h1.327Z" transform="translate(-552.939 -398.557)" fill="#fff"/>
    <path id="Trazado_3789" data-name="Trazado 3789" d="M753.377,437.256H749.65V431.8h3.727v.747h-2.855v1.507h2.365v.747h-2.365v1.71h2.855Z" transform="translate(-559.281 -398.557)" fill="#fff"/>
    <path id="Trazado_3790" data-name="Trazado 3790" d="M763.667,437.256h-.892a.355.355,0,0,1-.4-.258l-2.085-4.019h-.116v4.276h-.851V431.8h.967a.348.348,0,0,1,.4.257l2.012,3.83h.117V431.8h.852Z" transform="translate(-563.732 -398.557)" fill="#fff"/>
    <path id="Trazado_3791" data-name="Trazado 3791" d="M772.363,432.543v4.712h-.875v-4.712h-1.715v-.748h4.3v.748Z" transform="translate(-568.544 -398.556)" fill="#fff"/>
    <path id="Trazado_3792" data-name="Trazado 3792" d="M781.94,435.7h-2.083l-.475,1.536h-.867l1.733-5.273c.055-.179.1-.21.313-.21h.755c.195,0,.249.031.311.21l1.733,5.273h-.944Zm-1.856-.732h1.624l-.75-2.45h-.117Z" transform="translate(-572.568 -398.536)" fill="#fff"/>
    <path id="Trazado_3793" data-name="Trazado 3793" d="M793.3,437.038c-.179.163-.374.217-.889.217H790.9c-.515,0-.709-.054-.888-.217-.3-.273-.492-.671-.492-2.513s.188-2.238.492-2.512c.179-.163.373-.216.888-.216h1.514c.514,0,.709.052.889.216.306.274.446.633.46,1.576h-.873c-.024-.685-.094-.88-.178-.96-.065-.053-.126-.085-.392-.085h-1.325c-.267,0-.329.031-.391.085-.085.08-.195.322-.195,1.9s.109,1.818.195,1.9c.062.052.125.084.391.084h1.325c.266.007.326-.033.392-.084.084-.08.154-.235.178-1.047h.882c-.04,1.086-.164,1.39-.47,1.663" transform="translate(-577.633 -398.557)" fill="#fff"/>
    <rect id="Rectángulo_926" data-name="Rectángulo 926" width="0.872" height="5.46" transform="translate(217.695 33.239)" fill="#fff"/>
    <path id="Trazado_3794" data-name="Trazado 3794" d="M807.953,430.663c.515,0,.71.053.89.217.3.274.491.673.491,2.512s-.186,2.24-.491,2.513c-.18.163-.375.217-.89.217h-1.56c-.513,0-.71-.054-.888-.217-.3-.273-.492-.672-.492-2.513s.187-2.238.492-2.512c.178-.164.375-.217.888-.217ZM806.1,435.29c.062.052.124.084.389.084h1.374c.266.007.328-.032.389-.084.088-.08.2-.321.2-1.9s-.108-1.816-.2-1.9c-.061-.053-.124-.085-.389-.085h-1.374c-.265,0-.327.031-.389.085-.086.08-.2.322-.2,1.9s.109,1.818.2,1.9m.593-5.119.663-.834h1.3v.039l-1.17.835h-.789Z" transform="translate(-584.767 -397.424)" fill="#fff"/>
    <path id="Trazado_3795" data-name="Trazado 3795" d="M820.387,437.256h-.89a.354.354,0,0,1-.405-.258l-2.085-4.019h-.116v4.276h-.851V431.8h.966a.345.345,0,0,1,.4.257l2.013,3.83h.118V431.8h.851Z" transform="translate(-589.843 -398.557)" fill="#fff"/>
  </g>
</svg>
