<svg xmlns="http://www.w3.org/2000/svg" width="178.219" height="72.218" viewBox="0 0 178.219 72.218">
  <g id="Grupo_5722" data-name="Grupo 5722" transform="translate(0 0)">
    <g id="Grupo_5721" data-name="Grupo 5721" transform="translate(0)">
      <g id="Grupo_5718" data-name="Grupo 5718" transform="translate(6.132 29.032)">
        <g id="Grupo_5695" data-name="Grupo 5695" transform="translate(0.104 25.696)">
          <path id="Trazado_3796" data-name="Trazado 3796" d="M316.514,670.99h-6.539v16.659h1.913V672.891h4.644c2.548,0,4.609,2.883,4.609,6.433s-2.061,6.447-4.609,6.447h-3.455v1.878h3.455a5.88,5.88,0,0,0,4.7-2.353,10.7,10.7,0,0,0-.009-11.951A5.915,5.915,0,0,0,316.514,670.99Z" transform="translate(-309.776 -670.792)" fill="#fff"/>
          <path id="Trazado_3797" data-name="Trazado 3797" d="M316.034,687.352h-3.649v-2.275h3.649c2.433,0,4.413-2.8,4.413-6.248s-1.98-6.24-4.413-6.24h-4.447v14.763h-2.31V670.3h6.738a6.108,6.108,0,0,1,4.868,2.433,10.905,10.905,0,0,1,0,12.191,6.068,6.068,0,0,1-4.854,2.431Zm-3.257-.392h3.257a5.689,5.689,0,0,0,4.544-2.282,10.509,10.509,0,0,0-.007-11.706,5.717,5.717,0,0,0-4.555-2.279h-6.343v16.267h1.52V672.195h4.841c2.652,0,4.81,2.979,4.81,6.634s-2.158,6.645-4.81,6.645h-3.257v1.486Z" transform="translate(-309.278 -670.296)" fill="#fff"/>
        </g>
        <g id="Grupo_5696" data-name="Grupo 5696" transform="translate(18.6 25.696)">
          <path id="Trazado_3798" data-name="Trazado 3798" d="M383.859,672.87V670.99h-9.217v16.659h9.217V685.77h-7.312v-6.177h6.029V677.71h-6.029v-4.84Z" transform="translate(-374.441 -670.791)" fill="#fff"/>
          <path id="Trazado_3799" data-name="Trazado 3799" d="M383.557,687.352H373.94V670.3h9.617v2.277h-7.309v4.445h6.024V679.3h-6.024v5.78h7.309v2.275Zm-9.219-.392h8.823v-1.486h-7.31V678.9h6.024v-1.484h-6.024v-5.237h7.31v-1.486h-8.823v16.267Z" transform="translate(-373.94 -670.296)" fill="#fff"/>
        </g>
        <g id="Grupo_5707" data-name="Grupo 5707">
          <g id="Grupo_5697" data-name="Grupo 5697" transform="translate(141.255 1.245)">
            <rect id="Rect치ngulo_927" data-name="Rect치ngulo 927" width="1.903" height="16.658" transform="translate(0.198 0.199)" fill="#fff"/>
            <path id="Trazado_3800" data-name="Trazado 3800" d="M805.039,601.87h-2.3V584.815h2.3V601.87Zm-1.9-.4h1.506V585.211h-1.506v16.263Z" transform="translate(-802.741 -584.815)" fill="#fff"/>
          </g>
          <g id="Grupo_5698" data-name="Grupo 5698" transform="translate(149.854 1.104)">
            <path id="Trazado_3801" data-name="Trazado 3801" d="M841.436,585.009a8.493,8.493,0,1,0,7.933,8.476A8.228,8.228,0,0,0,841.436,585.009Zm0,14.9a6.444,6.444,0,1,1,6.023-6.428A6.243,6.243,0,0,1,841.436,599.912Z" transform="translate(-833.298 -584.813)" fill="#fff"/>
            <path id="Trazado_3802" data-name="Trazado 3802" d="M840.941,601.667A8.689,8.689,0,1,1,849.074,593a8.427,8.427,0,0,1-8.133,8.672Zm0-16.948A8.293,8.293,0,1,0,848.678,593a8.036,8.036,0,0,0-7.737-8.276Zm0,14.9A6.641,6.641,0,1,1,847.165,593a6.445,6.445,0,0,1-6.224,6.626Zm0-12.859A6.245,6.245,0,1,0,846.766,593a6.047,6.047,0,0,0-5.825-6.233Z" transform="translate(-832.803 -584.324)" fill="#fff"/>
          </g>
          <g id="Grupo_5699" data-name="Grupo 5699" transform="translate(17.857 1.245)">
            <path id="Trazado_3803" data-name="Trazado 3803" d="M372.028,585.512V602.17h9.219v-1.881h-7.31V585.512Z" transform="translate(-371.831 -585.312)" fill="#fff"/>
            <path id="Trazado_3804" data-name="Trazado 3804" d="M380.955,601.87h-9.613V584.815h2.3v14.778h7.31v2.277Zm-9.219-.4h8.823V599.99h-7.31V585.211h-1.513v16.263Z" transform="translate(-371.342 -584.815)" fill="#fff"/>
          </g>
          <g id="Grupo_5700" data-name="Grupo 5700" transform="translate(73.244 1.245)">
            <path id="Trazado_3805" data-name="Trazado 3805" d="M565.656,602.17h9.219v-1.881h-7.309v-6.177h6.024v-1.88h-6.024v-4.841h7.309v-1.88h-9.219Z" transform="translate(-565.461 -585.312)" fill="#fff"/>
            <path id="Trazado_3806" data-name="Trazado 3806" d="M574.584,601.87h-9.61V584.815h9.61v2.279h-7.309v4.443H573.3v2.276h-6.027v5.78h7.309v2.277Zm-9.214-.4h8.817V599.99h-7.311v-6.574h6.03v-1.483h-6.03V586.7h7.311v-1.485H565.37v16.263Z" transform="translate(-564.974 -584.815)" fill="#fff"/>
          </g>
          <g id="Grupo_5701" data-name="Grupo 5701" transform="translate(52.924)">
            <path id="Trazado_3807" data-name="Trazado 3807" d="M503.256,594.688l-8.628-12.062,0,17.484h1.908V588.582l8.634,12.354V583.451h-1.912Z" transform="translate(-494.428 -582.007)" fill="#fff"/>
            <path id="Trazado_3808" data-name="Trazado 3808" d="M504.869,600.023l-8.629-12.354v11.095h-2.3v-18.3l8.629,12.063V581.709h2.3v18.315Zm-9.024-13.613,8.629,12.354V582.1h-1.516v11.657L494.334,581.7v16.668h1.512V586.41Z" transform="translate(-493.936 -580.464)" fill="#fff"/>
          </g>
          <g id="Grupo_5702" data-name="Grupo 5702" transform="translate(88.088 1.245)">
            <path id="Trazado_3809" data-name="Trazado 3809" d="M617.569,587.392h4.151V602.17h1.917V587.392h4.149v-1.88H617.569Z" transform="translate(-617.369 -585.312)" fill="#fff"/>
            <path id="Trazado_3810" data-name="Trazado 3810" d="M623.33,601.87h-2.308V587.094h-4.154v-2.279h10.616v2.279H623.33V601.87Zm-1.912-.4h1.518V586.7h4.154v-1.485h-9.827V586.7h4.156v14.779Z" transform="translate(-616.868 -584.815)" fill="#fff"/>
          </g>
          <g id="Grupo_5703" data-name="Grupo 5703" transform="translate(32.238 0.073)">
            <path id="Trazado_3811" data-name="Trazado 3811" d="M422.629,600.109H424.7l4.752-12.182,2.227,5.7h-3.247l-.662,1.881h4.659l1.777,4.6h2.07l-6.825-17.484Z" transform="translate(-422.34 -582.08)" fill="#fff"/>
            <path id="Trazado_3812" data-name="Trazado 3812" d="M435.85,598.945h-2.495l-1.783-4.6h-4.8l.8-2.279h3.1l-1.939-4.955-4.618,11.836H421.62l7.112-18.227,7.118,18.227Zm-2.225-.4h1.643l-6.537-16.74-6.53,16.74h1.639l4.891-12.529,2.522,6.441h-3.4l-.521,1.489h4.513l1.781,4.6Z" transform="translate(-421.62 -580.718)" fill="#fff"/>
          </g>
          <g id="Grupo_5704" data-name="Grupo 5704" transform="translate(102.997 0.073)">
            <path id="Trazado_3813" data-name="Trazado 3813" d="M670.013,600.109h2.07l4.755-12.182,2.226,5.7h-3.247l-.657,1.881h4.653l1.783,4.6h2.063l-6.821-17.484Z" transform="translate(-669.721 -582.08)" fill="#fff"/>
            <path id="Trazado_3814" data-name="Trazado 3814" d="M683.222,598.945h-2.493l-1.78-4.6h-4.8l.8-2.279h3.1l-1.937-4.955-4.622,11.836h-2.5l7.117-18.227,7.113,18.227Zm-2.219-.4h1.638l-6.531-16.74-6.535,16.74h1.646l4.889-12.529,2.516,6.441h-3.394l-.522,1.489h4.51l1.783,4.6Z" transform="translate(-668.992 -580.718)" fill="#fff"/>
          </g>
          <g id="Grupo_5705" data-name="Grupo 5705" transform="translate(0 1.245)">
            <path id="Trazado_3815" data-name="Trazado 3815" d="M315.379,585.512h-5.766V602.17h1.911V587.382h3.855a3.04,3.04,0,0,1,2.07.97,3.283,3.283,0,0,1,.984,2.292,3.161,3.161,0,0,1-3.054,3.256H312.71v1.876h2.668a4.981,4.981,0,0,0,4.805-5.132A5.187,5.187,0,0,0,318.665,587,4.7,4.7,0,0,0,315.379,585.512Z" transform="translate(-309.414 -585.313)" fill="#fff"/>
            <path id="Trazado_3816" data-name="Trazado 3816" d="M311.221,601.87h-2.305V584.815h5.965a4.912,4.912,0,0,1,3.427,1.547,5.406,5.406,0,0,1,1.574,3.784,5.18,5.18,0,0,1-5,5.333h-2.864V593.2h2.864a2.961,2.961,0,0,0,2.854-3.056,3.093,3.093,0,0,0-.922-2.151,2.857,2.857,0,0,0-1.931-.913h-3.66V601.87Zm-1.908-.4h1.512V586.685h4.056a3.239,3.239,0,0,1,2.212,1.029,3.469,3.469,0,0,1,1.039,2.431,3.359,3.359,0,0,1-3.251,3.453h-2.468v1.483h2.468a4.784,4.784,0,0,0,4.6-4.936,4.988,4.988,0,0,0-1.463-3.505,4.515,4.515,0,0,0-3.142-1.429h-5.568v16.263Z" transform="translate(-308.916 -584.815)" fill="#fff"/>
          </g>
          <g id="Grupo_5706" data-name="Grupo 5706" transform="translate(123.921 1.245)">
            <path id="Trazado_3817" data-name="Trazado 3817" d="M748.762,595.024a4.8,4.8,0,0,0,3.436-4.687,4.683,4.683,0,0,0-4.521-4.824h-4.842V602.17h1.91V587.392h2.933a2.951,2.951,0,0,1,0,5.891h-2.589l7.276,8.888h2.253Z" transform="translate(-742.637 -585.313)" fill="#fff"/>
            <path id="Trazado_3818" data-name="Trazado 3818" d="M754.54,601.87l-2.826-.071-7.271-8.881v8.952h-2.3V584.815h5.04a4.882,4.882,0,0,1,4.719,5.024,5.1,5.1,0,0,1-3.273,4.816l5.911,7.215Zm-2.576-.4h1.74l-5.859-7.149h.422a4.6,4.6,0,0,0,3.238-4.487,4.488,4.488,0,0,0-4.323-4.628h-4.644v16.263h1.509V586.7h3.135a3.149,3.149,0,0,1,0,6.286H745.01l6.955,8.492Zm-7.521-8.889h2.739a2.752,2.752,0,0,0,0-5.492h-2.739v5.492Z" transform="translate(-742.142 -584.815)" fill="#fff"/>
          </g>
        </g>
        <g id="Grupo_5717" data-name="Grupo 5717" transform="translate(38.212 20.84)">
          <g id="Grupo_5708" data-name="Grupo 5708" transform="translate(0 3.006)">
            <path id="Trazado_3819" data-name="Trazado 3819" d="M452.764,679.193l-5.271-13.065-4.1,17.484h1.975l2.607-11.262,4.792,11.857,4.8-11.857,2.612,11.262h1.972l-4.1-17.484Z" transform="translate(-443.136 -665.471)" fill="#fff"/>
            <path id="Trazado_3820" data-name="Trazado 3820" d="M452.132,683.094l-4.741-11.73-2.5,10.805H442.5l4.305-18.339,5.322,13.192,5.329-13.192,4.3,18.339h-2.382l-2.5-10.805-4.749,11.73Zm-4.843-13.042,4.843,11.989,4.851-11.989,2.715,11.721h1.569L457.36,665.14l-5.228,12.94-5.225-12.94-3.9,16.632h1.569l2.714-11.721Z" transform="translate(-442.505 -663.83)" fill="#fff"/>
          </g>
          <g id="Grupo_5709" data-name="Grupo 5709" transform="translate(77.048 4.285)">
            <path id="Trazado_3821" data-name="Trazado 3821" d="M712.555,669v16.661h9.221v-1.881h-7.311V669Z" transform="translate(-712.356 -668.802)" fill="#fff"/>
            <path id="Trazado_3822" data-name="Trazado 3822" d="M721.476,685.361h-9.615V668.3h2.307v14.781h7.309v2.28Zm-9.219-.4h8.822v-1.487h-7.309V668.7h-1.513v16.265Z" transform="translate(-711.861 -668.301)" fill="#fff"/>
          </g>
          <g id="Grupo_5710" data-name="Grupo 5710" transform="translate(91.719 4.285)">
            <path id="Trazado_3823" data-name="Trazado 3823" d="M763.853,669v16.661h9.221v-1.881h-7.309V669Z" transform="translate(-763.653 -668.802)" fill="#fff"/>
            <path id="Trazado_3824" data-name="Trazado 3824" d="M772.769,685.361h-9.617V668.3h2.308v14.781h7.309v2.28Zm-9.221-.4h8.824v-1.487h-7.309V668.7h-1.516v16.265Z" transform="translate(-763.152 -668.301)" fill="#fff"/>
          </g>
          <g id="Grupo_5711" data-name="Grupo 5711" transform="translate(24.358 4.285)">
            <path id="Trazado_3825" data-name="Trazado 3825" d="M537.572,670.881V669h-9.207v16.661h9.207v-1.881h-7.3v-6.177h6.022v-1.878h-6.022v-4.846Z" transform="translate(-528.163 -668.802)" fill="#fff"/>
            <path id="Trazado_3826" data-name="Trazado 3826" d="M537.269,685.361h-9.61V668.3h9.61v2.28h-7.306v4.448h6.029V677.3h-6.029v5.78h7.306v2.28Zm-9.215-.4h8.822v-1.487h-7.31V676.9h6.03v-1.48h-6.03v-5.243h7.31V668.7h-8.822v16.265Z" transform="translate(-527.659 -668.301)" fill="#fff"/>
          </g>
          <g id="Grupo_5712" data-name="Grupo 5712" transform="translate(60.159 4.285)">
            <path id="Trazado_3827" data-name="Trazado 3827" d="M653.529,685.664h9.212v-1.881h-7.3v-6.177h6.025v-1.878h-6.025v-4.846h7.3V669h-9.212Z" transform="translate(-653.326 -668.802)" fill="#fff"/>
            <path id="Trazado_3828" data-name="Trazado 3828" d="M662.435,685.361H652.82V668.3h9.615v2.28h-7.3v4.448h6.026V677.3h-6.026v5.78h7.3v2.28Zm-9.218-.4h8.82v-1.487h-7.3V676.9h6.028v-1.48h-6.028v-5.243h7.3V668.7h-8.82v16.265Z" transform="translate(-652.82 -668.301)" fill="#fff"/>
          </g>
          <g id="Grupo_5713" data-name="Grupo 5713" transform="translate(116.892 3.044)">
            <path id="Trazado_3829" data-name="Trazado 3829" d="M862.388,666.951h-1.91v11.238l-8.626-12.06,0,17.484h1.905V672.085l8.632,12.109Z" transform="translate(-851.652 -665.509)" fill="#fff"/>
            <path id="Trazado_3830" data-name="Trazado 3830" d="M862.091,683.265l-8.635-12.109v11.108h-2.3l0-18.3,8.628,12.062V665.2h2.3v18.061Zm-9.029-13.346,8.633,12.109V665.6h-1.511v11.656L851.556,665.2l0,16.67h1.509V669.919Z" transform="translate(-851.157 -663.963)" fill="#fff"/>
          </g>
          <g id="Grupo_5714" data-name="Grupo 5714" transform="translate(40.578 4.285)">
            <path id="Trazado_3831" data-name="Trazado 3831" d="M591.587,669h-6.543v16.661h1.912V670.9H591.6c2.549,0,4.619,2.888,4.619,6.436s-2.07,6.449-4.619,6.449h-3.456v1.881H591.6a5.892,5.892,0,0,0,4.7-2.355,10.7,10.7,0,0,0-.007-11.948A5.887,5.887,0,0,0,591.587,669Z" transform="translate(-584.85 -668.802)" fill="#fff"/>
            <path id="Trazado_3832" data-name="Trazado 3832" d="M591.112,685.361H587.46v-2.28h3.652c2.436,0,4.417-2.806,4.417-6.248s-1.981-6.237-4.417-6.237h-4.443v14.765h-2.3V668.3H591.1a6.093,6.093,0,0,1,4.865,2.436,10.89,10.89,0,0,1,.007,12.191,6.084,6.084,0,0,1-4.86,2.434Zm-3.255-.4h3.255a5.68,5.68,0,0,0,4.546-2.279,10.478,10.478,0,0,0-.009-11.706,5.693,5.693,0,0,0-4.548-2.28H584.76v16.265h1.509V670.2h4.843c2.654,0,4.813,2.975,4.813,6.634s-2.159,6.645-4.813,6.645h-3.255v1.487Z" transform="translate(-584.364 -668.301)" fill="#fff"/>
          </g>
          <g id="Grupo_5715" data-name="Grupo 5715" transform="translate(107.128 4.285)">
            <rect id="Rect치ngulo_928" data-name="Rect치ngulo 928" width="1.908" height="16.661" transform="translate(0.198 0.201)" fill="#fff"/>
            <path id="Trazado_3833" data-name="Trazado 3833" d="M819.32,685.361h-2.3V668.3h2.3v17.06Zm-1.907-.4h1.513V668.7h-1.513v16.265Z" transform="translate(-817.02 -668.301)" fill="#fff"/>
          </g>
          <g id="Grupo_5716" data-name="Grupo 5716" transform="translate(107.128)">
            <path id="Trazado_3834" data-name="Trazado 3834" d="M818.142,656.735h1.785l1.783-2.721h-2.182Z" transform="translate(-817.821 -653.816)" fill="#fff"/>
            <path id="Trazado_3835" data-name="Trazado 3835" d="M819.231,656.439H817.02l1.582-3.118h2.674l-2.045,3.118Zm-1.567-.395h1.35l1.527-2.326h-1.694l-1.183,2.326Z" transform="translate(-817.02 -653.321)" fill="#fff"/>
          </g>
        </g>
      </g>
      <g id="Grupo_5720" data-name="Grupo 5720">
        <g id="Grupo_5719" data-name="Grupo 5719" transform="translate(20.52)">
          <path id="Trazado_3836" data-name="Trazado 3836" d="M562.763,511.862c.067.038.146.068.216.1a.7.7,0,0,1,.141.068.638.638,0,0,1,.206.253.983.983,0,0,1,.087.222c.05.013.1.03.154.045a1.741,1.741,0,0,1,.206-.092.19.19,0,0,1,.073-.12,3.676,3.676,0,0,0,.668-.6,1.988,1.988,0,0,0-.144-1.423.857.857,0,0,1-.185-.223.535.535,0,0,1-.11-.121c-.176-.057-.343-.141-.521-.207a2.241,2.241,0,0,0-.23.038.835.835,0,0,1-.429.37.1.1,0,0,0-.032.011,1.729,1.729,0,0,0-.245.476,2.55,2.55,0,0,0,.018.82C562.671,511.6,562.715,511.732,562.763,511.862Z" transform="translate(-504.418 -500.953)" fill="#fff"/>
          <path id="Trazado_3837" data-name="Trazado 3837" d="M583.338,525.454a.63.63,0,0,0,0-.259c0-.042,0-.08,0-.116a1.488,1.488,0,0,0-.1-.287,1.3,1.3,0,0,1-.234-.039c-.072,0-.136.005-.205.007a3.481,3.481,0,0,0-.624.088c-.085.063-.1.154-.194.259-.236.284-.635.24-.963.326a.107.107,0,0,1-.015.017,1.348,1.348,0,0,0-.374.774.635.635,0,0,1-.089.3.988.988,0,0,1-.169.267,1.312,1.312,0,0,1-1.119.384.038.038,0,0,0-.016-.005h0a1.157,1.157,0,0,0-.506.076c-.127.067-.2.208-.33.263a1.027,1.027,0,0,1-.323.077.881.881,0,0,1-.225.183,5.187,5.187,0,0,1-.767.289.2.2,0,0,1-.1,0,1.487,1.487,0,0,1-.152.055,3.211,3.211,0,0,1-1.44.008c-.1.012-.2.012-.3.026a2.627,2.627,0,0,0-.51.181,1.014,1.014,0,0,1-.581.032,10.468,10.468,0,0,1-3.577-1,6.8,6.8,0,0,1-1.466-1.166c-.415-.425-.8-1.19-1.292-1.512a.8.8,0,0,1-.346-.744c.005-.57.2-1.533-.654-1.513h0a.2.2,0,0,1-.146-.082,2.427,2.427,0,0,1-.281-.479.405.405,0,0,1-.055-.065,1.548,1.548,0,0,0-.076-.155,3.659,3.659,0,0,0-.844-.53.164.164,0,0,1-.1.026,1,1,0,0,0-.194.212,1.464,1.464,0,0,0-.1.165,1.446,1.446,0,0,1,.161.626,2.51,2.51,0,0,1-.1.59.153.153,0,0,1,.018.026,1.613,1.613,0,0,1,.091.381,1.356,1.356,0,0,0,.477.81,5.254,5.254,0,0,1,.427.495c.08.107.157.219.233.335a4.237,4.237,0,0,0,.873,1.12c.228.174.6.752.895.679a.959.959,0,0,0,.344.577,5.283,5.283,0,0,0,.495.531,1.346,1.346,0,0,0,.512.216c.005,0,.021.112.025.126a.234.234,0,0,0,.058.094c.076.062.167.041.254.067a.741.741,0,0,1,.187.079,3.17,3.17,0,0,1,.326.282,6.154,6.154,0,0,0,.7.367c.193.129.269.378.476.495a4.613,4.613,0,0,0,.788.193c.133.045.267.1.4.159a1.807,1.807,0,0,0,.449.151,2.282,2.282,0,0,0,.523-.035,2.649,2.649,0,0,1,.4-.026,1.473,1.473,0,0,1,.4.047,1.041,1.041,0,0,1,.22.12,4.089,4.089,0,0,0,1.812-.293.171.171,0,0,1,.107-.015.958.958,0,0,1,.2-.077,2.619,2.619,0,0,1,.708-.233,4.46,4.46,0,0,1,.762-.023,3.084,3.084,0,0,1,.842-.241.622.622,0,0,0,.1-.032,3.259,3.259,0,0,0,.562-.516.193.193,0,0,1,.209-.061,2.548,2.548,0,0,1,1.181-.544c.027-.034.06-.067.087-.1.143-.18.189-.412.314-.607.058-.091.2-.058.267-.152.334-.458.357-.823.883-1.134.214-.124.419-.259.63-.387C583.24,525.566,583.316,525.526,583.338,525.454Z" transform="translate(-506.045 -509.057)" fill="#fff"/>
          <path id="Trazado_3838" data-name="Trazado 3838" d="M565.16,487.372c.029,0,.059.005.085.005a2,2,0,0,0,.684-.421.179.179,0,0,0,.008-.041c0-.048-.011-.088-.011-.126a1.236,1.236,0,0,1,.089-.382,4.344,4.344,0,0,1,.155-.595.233.233,0,0,1,0-.082,3.422,3.422,0,0,1,.832-1.711,7.071,7.071,0,0,0,.767-.8.265.265,0,0,1,.125-.082,1.416,1.416,0,0,1,.225-.3,2.388,2.388,0,0,1,.681-.506c.076-.032.111-.058.129-.142a.241.241,0,0,1,.082-.2.824.824,0,0,1,.31-.122,3.035,3.035,0,0,0,.556-.263c.146-.082.315-.138.465-.218a1.719,1.719,0,0,0,.292-.227.73.73,0,0,1,.343-.117c.185-.039.282-.185.449-.264a1.064,1.064,0,0,1,.35-.1c.052,0,.106-.007.159-.012.175-.062.354-.124.535-.176a2.986,2.986,0,0,1,1.681-.421,3.886,3.886,0,0,1,1.346.364c.03.013.069.025.1.039a1.923,1.923,0,0,1,.335.2c.166.107.331.217.5.346a.064.064,0,0,0,.022.011,2.535,2.535,0,0,0,.617.094,1.667,1.667,0,0,1,.6.189,3.376,3.376,0,0,1,.3.241,1.322,1.322,0,0,0,.357.174,4.781,4.781,0,0,1,.492.178c.167.074.332.163.5.237a3.035,3.035,0,0,0,.617.177,2.409,2.409,0,0,1,.57.236,1.876,1.876,0,0,1,.336.216,2.536,2.536,0,0,1,.346.379.486.486,0,0,0,.256.183c.1.025.2.024.3.058.542.2.575.665.66,1.135a1.151,1.151,0,0,0,.207.463c.076.095.147.188.216.286a.182.182,0,0,1,.169.084,1.221,1.221,0,0,0,1.05.479,1.98,1.98,0,0,0,.539-.541c-.007-.014-.007-.03-.013-.038a3.91,3.91,0,0,0-.644-1.2c-.278-.305-.63-.545-.9-.857-.4-.47-.691-1.129-1.252-1.432a6.9,6.9,0,0,1-1.085-.551,5.448,5.448,0,0,0-.916-.7c-.553-.269-1.137-.461-1.68-.744a3.159,3.159,0,0,0-1.085-.423c-.138-.023-.285-.053-.422-.087a7.991,7.991,0,0,0-1.785-.291c-.2,0-.4,0-.6,0-.355.015-.707.023-1.063.02a2.728,2.728,0,0,0-.479.023,1.061,1.061,0,0,0-.4.108c-.122.089-.229.2-.354.284a1.189,1.189,0,0,1-.419.172.814.814,0,0,0-.4.222.848.848,0,0,1-.24.176c-.085.042-.188.058-.269.107-.047.032-.079.1-.124.136a.6.6,0,0,1-.158.086,3.439,3.439,0,0,0-.366.117,5.767,5.767,0,0,1-.924.33,4.153,4.153,0,0,0-.7.3,8.955,8.955,0,0,0-1.388.948c-.211.165-.416.336-.614.521-.087.088-.167.177-.251.267a1.326,1.326,0,0,0-.252.3,7.359,7.359,0,0,0-.249.782,2.42,2.42,0,0,1-.344.605,2.662,2.662,0,0,0-.183.293,1.41,1.41,0,0,0-.137.286,1.337,1.337,0,0,0-.025.368,7.171,7.171,0,0,1,0,1.05,1.08,1.08,0,0,1-.1.3.739.739,0,0,0,.2.547C565.031,487.333,565.1,487.35,565.16,487.372Z" transform="translate(-505.973 -478.97)" fill="#fff"/>
          <path id="Trazado_3839" data-name="Trazado 3839" d="M630.122,505.874a.319.319,0,0,0-.143-.175.483.483,0,0,0-.073-.027.757.757,0,0,0-.158-.028.189.189,0,0,1-.1-.052,1.955,1.955,0,0,0-.68-.033.706.706,0,0,1,.04.566,2.014,2.014,0,0,1-.446.624.674.674,0,0,1-.02.222.768.768,0,0,1-.071.213,1.6,1.6,0,0,1-.054,1.494.108.108,0,0,1,.058.026v0h0a2.1,2.1,0,0,1,0,.59v.593a2.19,2.19,0,0,1-.23,1.145c-.038.085-.082.177-.125.273a.16.16,0,0,1,.011.257,2.155,2.155,0,0,0-.263.306.189.189,0,0,1-.031.2,1.366,1.366,0,0,0-.239.415,1.281,1.281,0,0,0,.183.633,1.325,1.325,0,0,0,.976-.281c.1-.226.189-.45.285-.681.038-.095.078-.189.116-.283a.285.285,0,0,1,.159-.183c.152-.08.169-.213.222-.362a1.038,1.038,0,0,1,.1-.2.413.413,0,0,1,.094-.073.177.177,0,0,1-.027-.2,3.257,3.257,0,0,0,.216-.95c-.011-.048-.02-.1-.031-.145-.546-1.074.2-2.366.361-3.556C630.207,506.1,630.171,505.986,630.122,505.874Z" transform="translate(-550.826 -497.942)" fill="#fff"/>
          <path id="Trazado_3840" data-name="Trazado 3840" d="M661.953,496.694c.067-.061.134-.171.23-.2.136-.037.29.037.412-.049.071-.056.1-.163.165-.229a.476.476,0,0,1,.218-.118c.29-.1.339-.356.5-.582a1.02,1.02,0,0,0,.156-.366c.067-.257.227-.482.31-.733a.892.892,0,0,0-.232-.845c-.209-.289-.479-.539-.66-.842-.136-.217-.192-.314-.459-.288a2.233,2.233,0,0,1-.733-.068,3.458,3.458,0,0,0-.691-.188,1.748,1.748,0,0,0-.473.027,1.65,1.65,0,0,0-.172.049.734.734,0,0,0-.412.329c-.038.075-.038.167-.08.24s-.1.1-.151.158-.1.1-.149.16a2.369,2.369,0,0,0-.686,1.726,1.618,1.618,0,0,0,.111.511,2.354,2.354,0,0,0,.693.831,2.223,2.223,0,0,0,.967.5,3.552,3.552,0,0,0,.762.08A.491.491,0,0,0,661.953,496.694Z" transform="translate(-573.281 -488.402)" fill="#fff"/>
          <path id="Trazado_3841" data-name="Trazado 3841" d="M401.433,509.365c.077-.251.166-.5.216-.756a2.858,2.858,0,0,0,.037-.987,1.111,1.111,0,0,0-.06-.11c-.267-.254-.44-.6-.685-.866a1.63,1.63,0,0,0-1.085-.593c-.057-.033-.116-.064-.175-.1a1.481,1.481,0,0,0-1.022-.195,3.352,3.352,0,0,0-2.485,2.2,2.061,2.061,0,0,0-.006.392c0,.129.007.254.018.381a1.931,1.931,0,0,0,.483,1.155,2.659,2.659,0,0,0,.526.436c.2.134.453.227.644.377a1.088,1.088,0,0,0,.712.244c.259-.01.5-.079.756-.1a4.424,4.424,0,0,0,.85-.075,1.452,1.452,0,0,0,.687-.507,3.512,3.512,0,0,0,.2-.319,2.557,2.557,0,0,1,.355-.508A.582.582,0,0,0,401.433,509.365Z" transform="translate(-385.592 -498.081)" fill="#fff"/>
          <path id="Trazado_3842" data-name="Trazado 3842" d="M487.484,512.656a.937.937,0,0,1-.3.086c-.065,0-.13,0-.193,0-.1,0-.211.021-.314.021h-.028c0-.021-.012-.037-.008-.063-1.9.026-3.708-.008-5.476-.05-.056.007-.116.008-.175.012a10.048,10.048,0,0,1-1.136.079,11.444,11.444,0,0,1-2.794.07c-1.362-.129-2.732-.137-4.1-.2a.913.913,0,0,1-.1-.015c-1.516.057-3.046.174-4.612.378a2.1,2.1,0,0,0-.209-.112,11.733,11.733,0,0,0-1.787-.149,17.722,17.722,0,0,0-2.276.228.532.532,0,0,1-.177.011,7.679,7.679,0,0,1-.77.065c-1.026.021-2.08.03-3.143.033-.225.043-.452.079-.678.1a.634.634,0,0,1-.09.039,2.073,2.073,0,0,1-.27.072.537.537,0,0,1-.319.133c-.02,0-.034,0-.054,0,.508.043,1.063.163,1.272.6a.172.172,0,0,0,.05.025,1.352,1.352,0,0,0,.751-.075,6.056,6.056,0,0,1,2.167-.254,6.857,6.857,0,0,1,1.1.062c.333.078.613.292.944.369a5.3,5.3,0,0,0,1.1-.075,11.027,11.027,0,0,1,1.5-.288h.006c.315-.157.852.007,1.159.021-.018.45.851.388.743-.04,1.405-.138,2.831-.049,4.243-.049.786,0,1.574-.016,2.363.021a4.712,4.712,0,0,0,2.163-.213,5.3,5.3,0,0,1,2.135-.044,30.692,30.692,0,0,0,5.066-.069.257.257,0,0,0,.071-.009c.055,0,.109-.01.16-.017a1.045,1.045,0,0,0,.181-.012h.019a1.046,1.046,0,0,1,.506.019.807.807,0,0,0,.342,0c.057-.008.111,0,.167-.012a.667.667,0,0,1,.133-.03,1.945,1.945,0,0,1,.423-.054q.152.028.3.053a3.492,3.492,0,0,1,.012-.7A.317.317,0,0,0,487.484,512.656Z" transform="translate(-430.077 -502.98)" fill="#fff"/>
          <path id="Trazado_3843" data-name="Trazado 3843" d="M425.881,514.717c.687.019,1.374.007,2.057,0a1.814,1.814,0,0,1,.868-.321.717.717,0,0,1-.326-.16c-.246-.063-.493-.139-.744-.193-3.312-.018-6.681-.066-9.831-.037a3.954,3.954,0,0,1-.076.636.318.318,0,0,0-.011.058c.1-.006.2-.016.307-.018.494-.018.988-.019,1.48-.011s1,.029,1.505.065c.428.025.852.069,1.275.127a2.6,2.6,0,0,0,1.213.059,2.091,2.091,0,0,1,.489-.173A9.166,9.166,0,0,1,425.881,514.717Z" transform="translate(-401.055 -503.981)" fill="#fff"/>
          <path id="Trazado_3844" data-name="Trazado 3844" d="M391.057,514.489l-.006-.082c0-.029,0-.061-.006-.094-.112,0-.224,0-.336.008a2.3,2.3,0,0,0-.536.062c-.062.017-.163.054-.149.136s.134.15.2.187a2.446,2.446,0,0,0,.855.277c0-.017,0-.033-.006-.055A4.2,4.2,0,0,1,391.057,514.489Z" transform="translate(-381.21 -504.204)" fill="#fff"/>
          <path id="Trazado_3845" data-name="Trazado 3845" d="M366.243,513.343a.8.8,0,0,0-.294-.027c-.281.018-.556.126-.838.167-.6.086-1.131-.41-1.725-.284a2.11,2.11,0,0,1-.683.091c-.488-.051-.982.046-1.482-.009-.227-.026-.653-.066-.8.177-.087.143-1.074.183-1.074.229,0,0-.418.361.231.421a3.706,3.706,0,0,1,1,.222,4.632,4.632,0,0,0,1.183-.015c.2.006.4.107.607.118a1.81,1.81,0,0,0,.645-.08,5.456,5.456,0,0,1,.884-.24,3.562,3.562,0,0,1,1.111.233,4.44,4.44,0,0,0,1.537-.223c.291.1.036-.533-.056-.664C366.431,513.378,366.327,513.368,366.243,513.343Z" transform="translate(-359.214 -503.393)" fill="#fff"/>
          <path id="Trazado_3846" data-name="Trazado 3846" d="M809.022,513.443c-.134,0-.267.007-.4.013-.63.03-1.256-.007-1.885-.021-.4-.007-.8-.01-1.206-.011-1.4-.007-2.792-.008-4.192,0-1.711,0-3.42-.018-5.132-.049-1.259-.025-2.514-.007-3.768-.015a8.006,8.006,0,0,0-1.286.02,1.131,1.131,0,0,1-.889-.1,1.051,1.051,0,0,0-.559-.185,2.49,2.49,0,0,0-.377.175.176.176,0,0,1-.12.2c-.065.02-.129.039-.194.06a.468.468,0,0,0-.083.171,1.9,1.9,0,0,0,.421.719c.04.015.082.034.127.051a12.284,12.284,0,0,0,3.777.276c.481-.082.949-.234,1.437-.293a4.55,4.55,0,0,1,.74-.02,1.8,1.8,0,0,0,1.2-.132,1.082,1.082,0,0,1,.94-.209c.3.116.448.334.8.354,1.181.07,2.393.025,3.581.032q3.2.015,6.391,0c.2,0,.4,0,.6,0-.016-.138-.031-.273-.036-.41l0-.07.009-.07A3.316,3.316,0,0,1,809.022,513.443Z" transform="translate(-666.012 -503.334)" fill="#fff"/>
          <path id="Trazado_3847" data-name="Trazado 3847" d="M716.961,512.978a1.439,1.439,0,0,1-.468-.232,3.341,3.341,0,0,1-.535-.2.2.2,0,0,1-.1-.123.857.857,0,0,0-.428-.084c-.475.037-.889.283-1.35.348a2.257,2.257,0,0,0-1.161-.316c-.724-.027-1.446.049-2.173.076-.907.032-1.818,0-2.723-.023a10.95,10.95,0,0,0-2.667.02,12.153,12.153,0,0,1-1.214.286c-.867.091-1.662-.441-2.514-.323-.443.062-.88.375-1.337.289-.319-.055-.523-.261-.856-.176a2.6,2.6,0,0,1-1.161.139,1.191,1.191,0,0,1-.22-.049,4.779,4.779,0,0,0-1.377-.2c-.53,0-1.061.049-1.6.049a7,7,0,0,1-1.849-.081c-1.087-.456-1.457.118-2.5.081-.029.021-.047.041-.072.062a.286.286,0,0,1-.263.266,1.2,1.2,0,0,1-.2.144.035.035,0,0,1-.009.013c-.091.78,1.386.471,2.126.435,1.065-.048,2.144.018,3.211.018a15.533,15.533,0,0,0,1.972-.075,4.365,4.365,0,0,1,1.836-.019,3.085,3.085,0,0,0,1.408.235,2.524,2.524,0,0,1,.646-.06c.361.039.573.251.961.159a3.346,3.346,0,0,1,1.44-.153,14.826,14.826,0,0,0,1.867.332,29.14,29.14,0,0,0,3.084-.109,30.43,30.43,0,0,1,3.073.012q.652.034,1.3.063c.205.005.408.014.617.015a2.1,2.1,0,0,0,.878-.085,8.508,8.508,0,0,1,.9-.213,2.719,2.719,0,0,1,.421-.065,8.684,8.684,0,0,1,.967-.22C716.981,513.142,717.01,513.066,716.961,512.978Z" transform="translate(-595.506 -502.689)" fill="#fff"/>
          <path id="Trazado_3848" data-name="Trazado 3848" d="M887.409,514.195a.409.409,0,0,0-.423-.231c-.815.3-1.531-.452-2.531-.157a3.7,3.7,0,0,1-.611.12.387.387,0,0,0-.12-.089.988.988,0,0,0-.189,0c-.131,0-.241-.03-.372-.03l-.363,0a3.289,3.289,0,0,1-.41-.065c-.069-.009-.121,0-.185-.015a3.438,3.438,0,0,0-.981-.046.8.8,0,0,1-.361-.05,1.473,1.473,0,0,0-.272-.09,3.141,3.141,0,0,0-.568-.007c-.179,0-.357.061-.537.058l-.082,0a.53.53,0,0,0,.042-.041c-.047.018-.1.026-.147.041a.68.68,0,0,0-.245.032.518.518,0,0,0-.056.035,4,4,0,0,1-.8.014,5.6,5.6,0,0,1,.238,1.092h.2a.15.15,0,0,1,.06.019c.009.041.025.082.038.129a.919.919,0,0,0,.245.033c.045,0,.1,0,.145,0a1.272,1.272,0,0,0,.169-.03c.156-.026.325.036.47-.029a1.715,1.715,0,0,1,1.007-.234c.107.019.223.034.328.059.08.018.145.046.223.069a2.317,2.317,0,0,0,.5.135,1.205,1.205,0,0,1,.2,0,.3.3,0,0,0,.094.025,1.371,1.371,0,0,1,.234.034.439.439,0,0,0,.1.028,1.322,1.322,0,0,1,.209.028,1.672,1.672,0,0,1,.314.062,1.267,1.267,0,0,0,.31.088c.085.006.158.034.245.034s.162,0,.241,0,.127.008.189,0,.071-.021.08-.062a2.819,2.819,0,0,1,.368-.162,2.156,2.156,0,0,1,1.865-.04,1.186,1.186,0,0,0,.956.092A.947.947,0,0,0,887.409,514.195Z" transform="translate(-729.745 -503.646)" fill="#fff"/>
          <path id="Trazado_3849" data-name="Trazado 3849" d="M588.088,511.044l-.156-.261c-.087.015-.181.021-.265.028a3.51,3.51,0,0,0-.753-.222,21.54,21.54,0,0,0-2.186.381c-.468.066-.947.194-1.417.22a1.3,1.3,0,0,1-.559-.059,1.243,1.243,0,0,1-.274-.194.525.525,0,0,0-.334-.087c-.336,0-.673-.022-1.008-.017h-.1c0-.006-.012-.01-.014-.017a2.538,2.538,0,0,0-.88-.348,1.434,1.434,0,0,0-1.251.354,1.11,1.11,0,0,0-.175.154l-.107.042c-.053.018-.112.04-.166.056-.176.048-.353.084-.523.141-.11.037-.218.086-.33.114a2.278,2.278,0,0,1-.358.049,1.7,1.7,0,0,1-.491-.038c-.314-.071-.607-.209-.921-.282a1.649,1.649,0,0,0-.9.036,5.507,5.507,0,0,1-.851.267,1.935,1.935,0,0,1-.886-.127,2.19,2.19,0,0,0-.452-.111c-.143-.012-.288-.008-.428-.008-.124,0-.25,0-.377,0a3.015,3.015,0,0,1,.045.741,1.538,1.538,0,0,1,.329-.008.943.943,0,0,1,.331.147c.8-.061,1.6-.089,2.4-.1a2.294,2.294,0,0,1,.561-.052,2.556,2.556,0,0,1,.372.052c.384,0,.767.011,1.15.019.176-.025.352-.057.528-.072a5.628,5.628,0,0,1,.71-.019c.15.007.241.021.315.156.063.1.066.193.206.214.332.049.583.336.916.378s.558-.24.847-.34a1.12,1.12,0,0,0,.408-.164c.129-.116.054-.181.264-.156.173.016.35.025.526.025,1.018-.01,2.057-.391,3.064-.064.283.092.55.247.836.314a1.737,1.737,0,0,0,.394-.076.177.177,0,0,1,.118-.119.225.225,0,0,0,.073-.027c.009-.01.02-.018.032-.029a.44.44,0,0,0,.089-.006,4.12,4.12,0,0,1,.72-.034,2.087,2.087,0,0,1,.428.08l-.036-.04.51-.241C588.184,511.329,588.159,511.169,588.088,511.044Z" transform="translate(-511.076 -501.429)" fill="#fff"/>
          <path id="Trazado_3850" data-name="Trazado 3850" d="M649.838,511.574a14.916,14.916,0,0,0-3.643-.071,30.411,30.411,0,0,1-5.533.15,6.66,6.66,0,0,1-1.7-.4c-.156,0-.305,0-.454,0-.176,0-.343,0-.513-.007-.038.121-.069.247-.1.37-.082.291-.158.572-.209.842a.485.485,0,0,0,.055,0,.645.645,0,0,1,.085-.08c.009-.01.025-.013.036-.02.493-.314,1.219-.071,1.858.089.363,0,.72,0,1.079-.009.626-.012,1.255-.085,1.881-.089a9.829,9.829,0,0,1,1.644.29,5.983,5.983,0,0,0,1.685-.209,9.008,9.008,0,0,1,2.028.071c.307-.007,3.873.051,3.877-.327C651.906,511.867,650.059,511.612,649.838,511.574Z" transform="translate(-558.024 -502.016)" fill="#fff"/>
          <path id="Trazado_3851" data-name="Trazado 3851" d="M864.977,510.414a2.034,2.034,0,0,1-.218-.114,3.48,3.48,0,0,0-1.584-.6,2.19,2.19,0,0,0-.829.146c-.022.013-.049.024-.072.04a.8.8,0,0,0-.1.075,2.867,2.867,0,0,0-.854,1.646,4.6,4.6,0,0,0,.089.7c.056.114.1.206.129.261a2.8,2.8,0,0,0,1.121.993,3.146,3.146,0,0,0,1.154.2,2.7,2.7,0,0,0,1.148-.056c.566-.237.566-.839.72-1.342a4.819,4.819,0,0,0-.3-1.389A1.238,1.238,0,0,0,864.977,510.414Z" transform="translate(-717.698 -500.907)" fill="#fff"/>
          <path id="Trazado_3852" data-name="Trazado 3852" d="M485.564,496.185a2.772,2.772,0,0,0,1.4.438,2.823,2.823,0,0,0,2.381-2.6,3.974,3.974,0,0,0-.254-1.274c-.1-.273-.155-.281-.361-.435.013.011-.453-.323-.334-.317a.851.851,0,0,1-.488-.177,1.644,1.644,0,0,0-.417-.265c-.428-.169-.81.161-1.184.3-.358.134-.874.05-1.145.369a2.855,2.855,0,0,0-.577,2.921A2.3,2.3,0,0,0,485.564,496.185Z" transform="translate(-448.583 -487.923)" fill="#fff"/>
        </g>
        <path id="Trazado_3853" data-name="Trazado 3853" d="M305.809,514.612c.267-.078.355-.263.673-.274a.856.856,0,0,0,0-.636,44.032,44.032,0,0,0-5.409-.033,19.955,19.955,0,0,0-2.236.229c-.43.048-.87-.011-1.3,0-.147.005-.266.25-.367.238-.187-.028-.527-.237-.672-.231-.111,0-.216-.267-.379-.274-.3-.013-.2.456-.457.463-.431.011-.756-.205-1.2-.213-.665-.013-1.43.675-2.1.738-.78.07-1.532-.456-2.371-.484s-1.674.03-2.508-.015c.476.877.373,1.444,1.591,1.424.861-.018,1.666-.229,2.569-.229a43.331,43.331,0,0,0,5.372-.047c.7-.09,1.226-.534,1.945-.662,1.1-.2,1.641.4,2.616.653a10.555,10.555,0,0,0,2.478.055,4.631,4.631,0,0,0,1.3.007c.407-.155.7-.723,1.166-.95" transform="translate(-287.477 -503.69)" fill="#fff"/>
      </g>
    </g>
  </g>
</svg>
