<!-- Generated by IcoMoon.io -->
<svg version="1.1" xmlns="http://www.w3.org/2000/svg" width="512" height="512" viewBox="0 0 512 512">
    <title></title>
    <g id="icomoon-ignore">
    </g>
    <path fill="#fff"
        d="M357.616 251.236c-0.503-1.279-1.214-2.374-2.1-3.298l-70.596-70.596c-1.805-1.76-4.274-2.845-6.997-2.845-5.538 0-10.027 4.489-10.027 10.028 0 2.723 1.086 5.192 2.847 6.999l-0.002-0.002 53.625 53.525h-172.153c-5.514 0-9.984 4.47-9.984 9.984s4.47 9.984 9.984 9.984h172.153l-53.625 53.519c-1.76 1.805-2.845 4.274-2.845 6.997 0 5.538 4.49 10.027 10.027 10.027 2.723 0 5.192-1.086 6.999-2.847l70.597-70.59c1.746-1.845 2.82-4.342 2.82-7.090 0-1.367-0.265-2.671-0.748-3.864l0.024 0.070z">
    </path>
    <path fill="#fff"
        d="M7.936 255.037c0.099 136.435 110.724 247 247.173 247 101.708 0 189.069-61.43 227.001-149.212l0.616-1.603c12.318-28.389 19.485-61.452 19.485-96.19 0-136.51-110.663-247.173-247.173-247.173-101.772 0-189.179 61.508-227.073 149.38l-0.616 1.604c-12.273 28.238-19.413 61.131-19.413 95.692 0 0.177 0 0.353 0 0.53v-0.027zM2.56 255.037c0-139.44 113.038-252.477 252.477-252.477s252.477 113.038 252.477 252.477c0 139.439-113.038 252.477-252.477 252.477v0c-139.44 0-252.477-113.038-252.477-252.477v0z">
    </path>
</svg>